<svg xmlns="http://www.w3.org/2000/svg" viewBox="0 0 212 56"><path fill="currentColor" d="M166.352 6.597h-.89l-.174.011a10.3 10.3 0 00-6.893 3.913l-6.936 8.915a1.316 1.316 0 01-2.329 0l-6.927-8.915a10.3 10.3 0 00-6.893-3.913h-.574a7.162 7.162 0 00-7.178 7.156v30.858a.927.927 0 00.928.927h7.115a.927.927 0 00.928-.927V18.868a.7.7 0 011.255-.429l4.751 6.112a9.851 9.851 0 007.758 3.951 9.858 9.858 0 007.762-3.951l4.758-6.115a.7.7 0 011.255.429v25.758a.927.927 0 00.928.927h7.115a.927.927 0 00.928-.927V13.277a6.683 6.683 0 00-6.687-6.68zM205.671 8.206a23.883 23.883 0 00-8.928-1.556h-2.272a23.811 23.811 0 00-8.9 1.555c-4.108 1.875-6.229 5.292-6.321 10.153h-.009v16.137h.019c.191 4.666 2.308 7.957 6.311 9.782 4.593 2.1 14.307 2.1 18.9 0a10.087 10.087 0 005.976-7.17l.1-.431a.926.926 0 00-.653-1.1l-6.624-1.846a.928.928 0 00-1.158.695s-.492 1.9-1.678 2.394c-2.123.875-9.052.9-11.141-.05-.322-.147-1.076-.491-1.076-2.353v-3.528h8.552a23.819 23.819 0 008.908-1.556c3.99-1.822 6.107-5.1 6.309-9.738h.02v-1.235h-.009c-.097-4.86-2.218-8.277-6.326-10.153zm-3.344 11.265c0 1.865-.754 2.209-1.075 2.355a16.3 16.3 0 01-5.211.712h-8.532v-4.472c0-1.862.754-2.206 1.076-2.352a16.285 16.285 0 015.21-.712h2.224a16.384 16.384 0 015.232.711c.322.147 1.076.491 1.076 2.353zM115.028 8.293c-4.593-2.1-14.307-2.1-18.9 0a10.085 10.085 0 00-5.975 7.17l-.1.431a.927.927 0 00.653 1.1l6.624 1.845a.928.928 0 001.158-.695s.492-1.9 1.678-2.394c2.123-.875 9.052-.9 11.141.05.322.147 1.076.491 1.076 2.353v3.528h-8.546a23.816 23.816 0 00-8.908 1.556c-3.989 1.822-6.107 5.1-6.309 9.738h-.02v1.235h.009c.091 4.859 2.212 8.277 6.32 10.153a23.88 23.88 0 008.929 1.556h2.272c3.61-.053 6.855-.27 8.9-1.206 4.108-1.874 6.229-5.292 6.321-10.153h.009V18.075h-.023c-.189-4.666-2.306-7.957-6.309-9.782zm-2.642 26.563c0 1.861-.754 2.206-1.076 2.352-.869.4-2.922.325-5.21.362h-2.224a16.367 16.367 0 01-5.231-.712c-.322-.147-1.077-.491-1.077-2.353v-1.4c0-1.865.754-2.209 1.075-2.355a16.3 16.3 0 015.211-.712h8.532zM73.954 12.288v.011L63.51 1.941a6.747 6.747 0 00-9.459 0l-11.21 11.117a6.725 6.725 0 01-9.455 0L22.176 1.941a6.747 6.747 0 00-9.459 0L2.273 12.299v-.011a7.715 7.715 0 00-.352 10.565c.014.016 31.464 31.205 31.464 31.205a6.725 6.725 0 009.455 0s31.45-31.189 31.464-31.205a7.715 7.715 0 00-.352-10.565z" class="LogoAme__PathA-sc-w34xbx-0 gIWaeX"></path><path fill="currentColor" d="M33.384 13.058a6.73 6.73 0 009.459 0L54.05 1.938a6.683 6.683 0 014.477-1.93v-.011H17.698v.011a6.691 6.691 0 014.481 1.931z" class="LogoAme__PathA-sc-w34xbx-0 LogoAme__PathB-sc-w34xbx-1 gIWaeX cRlqki path"></path><style>svg{color:#FFF}.path {opacity:0.5}</style></svg>